<?xml version="1.0" encoding="utf-8"?>
<!-- Generator: Adobe Illustrator 16.0.0, SVG Export Plug-In . SVG Version: 6.00 Build 0)  -->
<!DOCTYPE svg PUBLIC "-//W3C//DTD SVG 1.1//EN" "http://www.w3.org/Graphics/SVG/1.1/DTD/svg11.dtd">
<svg version="1.1" id="Layer_1" xmlns="http://www.w3.org/2000/svg" xmlns:xlink="http://www.w3.org/1999/xlink" x="0px" y="0px"
	 width="15px" height="7px" viewBox="0 0 15 7" enable-background="new 0 0 15 7" xml:space="preserve">
<g>
	<path fill="#010101" d="M0,0.489c0-0.127,0.061-0.253,0.167-0.345S0.415,0,0.565,0c0.149,0,0.291,0.051,0.398,0.144L7.501,5.82
		l6.536-5.676c0.22-0.19,0.577-0.19,0.797,0C14.942,0.237,15,0.36,15,0.491c0,0.13-0.059,0.253-0.166,0.345L7.898,6.859
		C7.792,6.952,7.651,7,7.5,7C7.349,7,7.208,6.949,7.103,6.856L0.167,0.833C0.061,0.746,0,0.619,0,0.489z"/>
</g>
</svg>
