<?xml version="1.0" encoding="utf-8"?>
<!-- Generator: Adobe Illustrator 16.0.0, SVG Export Plug-In . SVG Version: 6.00 Build 0)  -->
<!DOCTYPE svg PUBLIC "-//W3C//DTD SVG 1.1//EN" "http://www.w3.org/Graphics/SVG/1.1/DTD/svg11.dtd">
<svg version="1.1" id="Layer_1" xmlns="http://www.w3.org/2000/svg" xmlns:xlink="http://www.w3.org/1999/xlink" x="0px" y="0px"
	 width="11px" height="11px" viewBox="0 0 11 11" enable-background="new 0 0 11 11" xml:space="preserve">
<g>
	<path fill="#FFFFFF" d="M10.513,11c-0.131,0-0.253-0.051-0.345-0.144L5.5,6.189l-4.668,4.668C0.74,10.95,0.618,11,0.488,11
		s-0.253-0.051-0.345-0.143C0.051,10.765,0,10.643,0,10.513c0-0.131,0.051-0.253,0.143-0.345L4.811,5.5L0.143,0.833
		C0.051,0.741,0,0.618,0,0.488s0.051-0.252,0.143-0.345C0.235,0.051,0.358,0,0.488,0c0.131,0,0.253,0.051,0.345,0.143L5.5,4.811
		l4.668-4.668C10.26,0.051,10.383,0,10.513,0s0.253,0.051,0.344,0.143C10.95,0.236,11,0.358,11,0.488S10.95,0.74,10.857,0.833
		L6.19,5.5l4.667,4.667C10.95,10.26,11,10.382,11,10.512c0,0.131-0.051,0.253-0.144,0.345C10.766,10.95,10.643,11,10.513,11z"/>
</g>
</svg>
