<svg width="356" height="40" viewBox="0 0 356 40" fill="none" xmlns="http://www.w3.org/2000/svg">
<rect x="13" y="18.25" width="12" height="1.5" rx="0.75" fill="#333333"/>
<path d="M61 18.9999C61 18.5857 61.3358 18.2499 61.75 18.2499H72.25C72.6642 18.2499 73 18.5857 73 18.9999C73 19.4141 72.6642 19.7499 72.25 19.7499H61.75C61.3358 19.7499 61 19.4141 61 18.9999Z" fill="#333333"/>
<path d="M67 25C66.5858 25 66.25 24.6642 66.25 24.25L66.25 13.75C66.25 13.3358 66.5858 13 67 13C67.4142 13 67.75 13.3358 67.75 13.75L67.75 24.25C67.75 24.6642 67.4142 25 67 25Z" fill="#333333"/>
<path fill-rule="evenodd" clip-rule="evenodd" d="M102.872 0.130175C103.043 0.303741 103.043 0.585148 102.872 0.758714L99.8094 3.86983C99.6385 4.04339 99.3615 4.04339 99.1906 3.86983L96.1281 0.758714C95.9573 0.585148 95.9573 0.303741 96.1281 0.130174C96.299 -0.0433919 96.576 -0.0433919 96.7469 0.130175L99.5 2.92702L102.253 0.130175C102.424 -0.0433916 102.701 -0.0433916 102.872 0.130175Z" fill="#555555"/>
<path d="M143.354 10.5L122.69 10.5C121.709 10.5077 120.77 10.8991 120.079 11.589C119.388 12.2789 119 13.2113 119 14.1831V25.8753C119.002 26.3532 119.099 26.8261 119.285 27.2668C119.472 27.7076 119.744 28.1078 120.087 28.4443C120.43 28.7809 120.836 29.0474 121.282 29.2285C121.729 29.4096 122.207 29.5018 122.69 29.4999H143.354C144.301 29.5074 145.214 29.1451 145.893 28.4914C146.242 28.1549 146.52 27.7527 146.71 27.3085C146.9 26.8643 146.999 26.387 147 25.9045V14.2123C147.004 13.2441 146.625 12.3129 145.943 11.6188C145.261 10.9246 144.332 10.523 143.354 10.5ZM145.568 25.8461C145.568 26.4288 145.335 26.988 144.921 27.4014C144.506 27.8149 143.943 28.0491 143.354 28.053H122.69C122.13 28.032 121.601 27.7961 121.214 27.3953C121.006 27.1931 120.84 26.9522 120.726 26.6863C120.612 26.4204 120.552 26.1349 120.55 25.8461V19.4153H145.642L145.568 25.8461ZM145.568 17.9392H120.476V16.463H145.568V17.9392ZM145.568 14.2415V14.943L120.476 14.943V14.2415C120.474 13.9478 120.532 13.6567 120.646 13.3855C120.76 13.1144 120.928 12.8687 121.14 12.6631C121.533 12.2743 122.061 12.0494 122.616 12.0346L143.28 12.0346C143.572 12.0263 143.863 12.0792 144.132 12.1901C144.402 12.3009 144.645 12.4671 144.845 12.6777C145.067 12.8755 145.246 13.1164 145.37 13.3854C145.495 13.6543 145.562 13.9457 145.568 14.2415Z" fill="#555555"/>
<path fill-rule="evenodd" clip-rule="evenodd" d="M189.701 10.5167C188.165 10.5167 186.919 11.7616 186.919 13.2973C186.919 14.833 188.165 16.0779 189.701 16.0779C191.237 16.0779 192.483 14.833 192.483 13.2973C192.483 11.7616 191.237 10.5167 189.701 10.5167ZM185.402 13.2973C185.402 10.924 187.327 9 189.701 9C192.075 9 194 10.924 194 13.2973C194 15.6706 192.075 17.5945 189.701 17.5945C188.166 17.5945 186.819 16.7902 186.058 15.5802L180.445 18.8537C180.548 19.2257 180.6 19.6114 180.598 20C180.6 20.3886 180.548 20.7743 180.445 21.1463L185.875 24.3129C186.646 23.1626 187.959 22.4055 189.448 22.4055C191.823 22.4055 193.747 24.3294 193.747 26.7027C193.747 29.076 191.823 31 189.448 31C187.074 31 185.149 29.076 185.149 26.7027C185.149 26.3619 185.189 26.0304 185.264 25.7125L179.784 22.5169C179.358 23.1062 178.787 23.581 178.121 23.8923C177.244 24.3025 176.254 24.4047 175.311 24.1823C174.369 23.9598 173.529 23.4258 172.928 22.6668C172.327 21.9077 172 20.968 172 20C172 19.032 172.327 18.0923 172.928 17.3332C173.529 16.5742 174.369 16.0401 175.311 15.8177C176.254 15.5953 177.244 15.6974 178.121 16.1076C178.787 16.4189 179.358 16.8938 179.784 17.4831L185.373 14.2241C185.411 14.2018 185.45 14.1832 185.491 14.1683C185.433 13.887 185.402 13.5957 185.402 13.2973ZM177.478 17.4814C176.91 17.216 176.27 17.1499 175.66 17.2938C175.05 17.4378 174.507 17.7833 174.118 18.2745C173.729 18.7656 173.517 19.3736 173.517 20C173.517 20.6263 173.729 21.2343 174.118 21.7255C174.507 22.2167 175.05 22.5622 175.66 22.7062C176.27 22.8501 176.91 22.784 177.478 22.5185C178.046 22.2531 178.507 21.8039 178.787 21.2437L178.789 21.2403L178.789 21.2403C178.983 20.8574 179.083 20.4337 179.08 20.0045L179.08 19.9955H179.08C179.083 19.5663 178.983 19.1426 178.789 18.7597L178.787 18.7563L178.787 18.7563C178.507 18.1961 178.046 17.7469 177.478 17.4814ZM189.448 23.9221C187.912 23.9221 186.667 25.167 186.667 26.7027C186.667 28.2384 187.912 29.4833 189.448 29.4833C190.985 29.4833 192.23 28.2384 192.23 26.7027C192.23 25.167 190.985 23.9221 189.448 23.9221Z" fill="#555555"/>
<path d="M227.5 7.5C227.5 11.366 224.366 14.5 220.5 14.5C216.634 14.5 213.5 11.366 213.5 7.5C213.5 3.63401 216.634 0.5 220.5 0.5C224.366 0.5 227.5 3.63401 227.5 7.5Z" stroke="#777777"/>
<path d="M221.178 9.33054H219.724C219.721 9.11972 219.719 8.99046 219.719 8.94534C219.719 8.47166 219.797 8.08126 219.953 7.77501C220.109 7.46877 220.42 7.12435 220.888 6.74176C221.356 6.35917 221.634 6.10931 221.727 5.99046C221.866 5.80307 221.937 5.59572 221.937 5.37102C221.937 5.05697 221.813 4.78803 221.563 4.5642C221.314 4.34037 220.978 4.22846 220.557 4.22846C220.15 4.22846 219.81 4.34471 219.536 4.57808C219.262 4.81232 219.074 5.16802 218.972 5.64604L217.5 5.46212C217.541 4.77762 217.832 4.19636 218.37 3.71747C218.908 3.23858 219.615 3 220.489 3C221.409 3 222.141 3.24205 222.684 3.72614C223.228 4.21024 223.5 4.77415 223.5 5.41614C223.5 5.77183 223.399 6.10844 223.2 6.42597C223 6.74349 222.573 7.17554 221.92 7.72383C221.58 8.00665 221.371 8.23395 221.291 8.40659C221.208 8.57837 221.171 8.88635 221.178 9.33054ZM221.369 11.1255C221.369 11.6096 220.979 12 220.5 12C220.021 12 219.631 11.6096 219.631 11.1255C219.631 10.6423 220.02 10.251 220.5 10.251C220.98 10.251 221.369 10.6431 221.369 11.1255Z" fill="#777777"/>
<path fill-rule="evenodd" clip-rule="evenodd" d="M273.743 1.01983C274.285 1.98255 273.943 3.20198 272.981 3.74351L256.981 12.7435C256.372 13.086 255.628 13.086 255.02 12.7435L239.02 3.7435C238.057 3.20198 237.715 1.98255 238.257 1.01983C238.799 0.057115 240.018 -0.284325 240.981 0.257202L256 8.70566L271.02 0.257204C271.982 -0.284324 273.202 0.0571165 273.743 1.01983Z" fill="#E8E8E8"/>
<path fill-rule="evenodd" clip-rule="evenodd" d="M293.817 0.162718C294.062 0.379676 294.062 0.731435 293.817 0.948393L289.442 4.83728C289.198 5.05424 288.803 5.05424 288.559 4.83728L284.184 0.948392C283.939 0.731434 283.939 0.379676 284.184 0.162718C284.428 -0.0542399 284.823 -0.0542399 285.067 0.162718L289 3.65877L292.934 0.162718C293.178 -0.0542395 293.573 -0.0542395 293.817 0.162718Z" fill="#AAAAAA"/>
<path d="M323.5 10C323.5 15.2467 319.247 19.5 314 19.5C308.754 19.5 304.5 15.2467 304.5 10C304.5 4.7533 308.754 0.5 314 0.5C319.247 0.5 323.5 4.75329 323.5 10Z" stroke="#777777"/>
<path d="M314.678 12.0339H313.225C313.221 11.7997 313.219 11.6561 313.219 11.6059C313.219 11.0796 313.297 10.6459 313.453 10.3056C313.609 9.96531 313.92 9.58262 314.388 9.15752C314.857 8.73242 315.135 8.4548 315.227 8.32274C315.367 8.11452 315.438 7.88414 315.438 7.63448C315.438 7.28553 315.313 6.9867 315.063 6.73801C314.814 6.48931 314.479 6.36496 314.057 6.36496C313.65 6.36496 313.311 6.49413 313.037 6.75343C312.763 7.0137 312.575 7.40891 312.472 7.94005L311 7.73569C311.042 6.97514 311.332 6.32929 311.87 5.79719C312.408 5.26509 313.115 5.00001 313.989 5.00001C314.909 5.00001 315.641 5.26895 316.184 5.80683C316.729 6.34472 317 6.97128 317 7.6846C317 8.07982 316.9 8.45383 316.7 8.80664C316.5 9.15944 316.074 9.63949 315.42 10.2487C315.081 10.563 314.871 10.8155 314.791 11.0073C314.708 11.1982 314.671 11.5404 314.678 12.0339ZM314.869 14.0283C314.869 14.5662 314.48 15 314 15C313.521 15 313.132 14.5662 313.132 14.0283C313.132 13.4914 313.52 13.0567 314 13.0567C314.481 13.0567 314.869 13.4924 314.869 14.0283Z" fill="#777777"/>
<path fill-rule="evenodd" clip-rule="evenodd" d="M356 7.22731C356 3.16058 353.397 0 349.713 0C348.157 0 346.929 0.861528 346.069 1.73415C345.642 2.16719 345.283 2.62648 345 3.0244C344.718 2.62648 344.359 2.16719 343.932 1.73415C343.072 0.861529 341.844 0 340.288 0C336.604 0 334 3.16058 334 7.22731C334 9.37658 335.067 11.3278 336.864 13.3074C338.659 15.2862 341.277 17.3934 344.567 19.8548C344.826 20.0484 345.175 20.0484 345.434 19.8548C348.724 17.3934 351.341 15.2862 353.137 13.3074C354.934 11.3278 356 9.37658 356 7.22731ZM349.713 1.54275C352.425 1.54275 354.517 3.84494 354.517 7.22731C354.517 8.80257 353.746 10.3897 352.059 12.2484C350.446 14.0256 348.081 15.9595 345 18.2775C341.92 15.9595 339.555 14.0256 337.942 12.2484C336.255 10.3897 335.484 8.80258 335.484 7.22731C335.484 3.84494 337.576 1.54275 340.288 1.54275C341.292 1.54275 342.167 2.09865 342.897 2.83874C343.542 3.49336 344.003 4.21738 344.285 4.66168C344.321 4.71846 344.355 4.77067 344.385 4.81759C344.523 5.03082 344.753 5.15873 345 5.15873C345.247 5.15873 345.478 5.03082 345.616 4.81759C345.646 4.77068 345.68 4.71847 345.716 4.6617C345.998 4.21741 346.459 3.49337 347.104 2.83874C347.834 2.09865 348.709 1.54275 349.713 1.54275Z" fill="#00A7B3"/>
</svg>
