<svg width="24" height="24" viewBox="0 0 24 24" fill="none" xmlns="http://www.w3.org/2000/svg">
<path d="M10.6831 3.41468C11.2516 2.37226 12.7484 2.37227 13.3169 3.41468L15.2416 6.94392C15.4574 7.33952 15.8395 7.61716 16.2824 7.7001L20.2337 8.44004C21.4008 8.65859 21.8633 10.0821 21.0476 10.9449L18.2859 13.8661C17.9763 14.1935 17.8303 14.6427 17.8883 15.0896L18.4056 19.0761C18.5584 20.2536 17.3475 21.1334 16.2748 20.6242L12.6432 18.9003C12.2362 18.7071 11.7638 18.7071 11.3568 18.9003L7.72517 20.6242C6.65253 21.1334 5.44161 20.2536 5.5944 19.0761L6.11169 15.0896C6.16967 14.6427 6.0237 14.1935 5.71414 13.8661L2.9524 10.9449C2.13669 10.0821 2.59922 8.6586 3.76629 8.44004L7.71758 7.7001C8.16047 7.61716 8.54263 7.33952 8.75837 6.94392L10.6831 3.41468Z" fill="#ccc"/>
</svg>
