<svg width="65" height="56" viewBox="0 0 65 56" fill="none" xmlns="http://www.w3.org/2000/svg">
<path d="M8.39552 23.4839L8.12469 23.067C8.12469 23.067 9.61426 21.9554 11.2392 21.8164V22.3722C9.74967 22.5112 8.39552 23.4839 8.39552 23.4839Z" fill="black"/>
<path d="M61.3433 27.6524C59.9891 25.5681 58.2287 24.1785 56.7392 23.0668C62.0204 21.6772 60.1245 14.3124 55.7913 13.4787C53.8955 13.2008 52.2705 14.1735 51.3226 15.4241C47.531 11.6722 41.7081 8.89305 34.5312 8.33722C33.8541 8.33722 33.3124 8.33722 32.6353 8.33722C31.9583 8.33722 31.4166 8.33722 30.7395 8.33722C23.698 8.75409 17.7397 11.5333 13.9481 15.4241C13.0002 14.1735 11.3752 13.0618 9.47943 13.4787C5.14616 14.1735 3.11494 21.5383 8.53153 23.0668C7.04197 24.1785 5.28157 25.5681 3.92743 27.6524C0.000397682 33.9056 1.8962 40.9925 3.25035 43.7716C3.25035 43.9106 3.38577 44.0495 3.38577 44.1885C3.52118 44.3274 3.52118 44.6054 3.6566 44.7443C7.85445 52.665 19.9064 55.861 32.6353 56C45.3643 56 57.4162 52.665 61.6141 44.7443C61.7495 44.6054 61.7495 44.3274 61.8849 44.1885C61.8849 44.0495 62.0203 43.9106 62.0203 43.7716C63.5099 40.9925 65.2703 33.9056 61.3433 27.6524Z" fill="white"/>
<path d="M61.8848 44.1886C61.8848 44.0497 62.0203 43.9107 62.0203 43.7718C62.1558 43.4938 62.2913 43.3549 62.2913 43.077C62.2913 43.3549 62.1558 43.7718 61.8848 44.1886Z" fill="black"/>
<path d="M32.3641 0C14.4894 0 0 11.9504 0 29.8761C0 34.6007 0.947904 38.9084 2.7083 42.9382C1.35415 39.7421 0.135415 33.35 3.79161 27.6527C5.01035 25.5683 6.90615 24.1788 8.39571 23.0671C8.93737 22.7892 9.88528 22.2333 10.8332 22.0944C10.9686 22.0944 10.9686 21.9554 10.9686 21.9554C10.9686 21.8165 10.8332 21.8165 10.8332 21.8165C9.74986 21.9554 8.66654 22.5113 8.12488 22.9281C3.24995 21.2606 5.28118 14.1738 9.47903 13.479C11.3748 13.2011 12.9998 14.1738 13.9477 15.4244C17.7393 11.6725 23.5622 8.89334 30.7391 8.33751C31.4162 8.33751 31.9579 8.33751 32.635 8.33751C33.1766 8.33751 33.8537 8.33751 34.5308 8.33751C41.5723 8.75438 47.5306 11.5336 51.3222 15.4244C52.2701 14.1738 53.8951 13.0621 55.7909 13.479C59.9887 14.1738 62.02 21.2606 57.0096 22.9281C56.7388 22.7892 55.3846 21.8165 54.0305 21.6775C53.8951 21.6775 53.8951 21.6775 53.8951 21.8165C53.8951 21.9554 53.8951 21.9554 54.0305 21.9554C55.3846 22.0944 56.8742 23.2061 56.8742 23.2061C58.3638 24.3177 59.9887 25.7073 61.2075 27.6527C64.8637 33.35 63.5095 39.8811 62.2908 42.9382C64.0512 38.9084 64.9991 34.4617 64.9991 29.8761C65.1345 11.9504 50.3743 0 32.3641 0Z" fill="black"/>
<path d="M3.2493 44.1886C3.11389 43.7718 2.97847 43.4938 2.70764 43.077C2.84306 43.3549 2.97847 43.6328 2.97847 43.7718C3.2493 43.9107 3.2493 44.0497 3.2493 44.1886Z" fill="black"/>
<path d="M33.3121 11.2553C33.3121 11.2553 37.9162 8.47613 36.8329 5.28009C36.8329 5.28009 38.9995 5.97488 39.4057 8.47613C39.4057 8.47613 40.6245 8.75405 41.3015 6.80863C41.3015 6.80863 43.1974 8.61509 41.437 11.3943C41.437 11.3943 40.2182 12.7838 39.6766 12.367C39.1349 12.228 33.3121 11.2553 33.3121 11.2553Z" fill="white"/>
<path d="M51.8644 30.7098C50.2394 29.8761 47.3957 30.9877 40.0833 31.4046C36.1563 31.6825 28.1668 31.5436 24.5106 31.1267C17.3336 30.4319 14.8961 29.4592 13.542 30.5709C11.917 31.6825 11.6462 42.5213 22.6148 46.1342C23.6981 46.5511 28.1668 47.5238 32.7709 47.5238C37.375 47.5238 41.7083 46.5511 42.927 46.1342C53.8956 42.3823 53.2185 31.4046 51.8644 30.7098Z" fill="black"/>
<path d="M32.7714 37.5186C27.4902 37.5186 20.9903 39.8808 17.6049 43.4938C18.9591 44.4665 20.584 45.4392 22.4799 46.134C23.5632 46.5509 28.0319 47.5236 32.636 47.5236C37.2401 47.5236 41.5733 46.5509 42.7921 46.134C44.8233 45.4392 46.4483 44.6054 47.667 43.4938C44.2816 39.464 38.188 37.5186 32.7714 37.5186Z" fill="#00A7B3"/>
<path d="M32.9071 23.9008C34.1258 23.9008 35.2091 24.7346 35.7508 25.8462C36.157 26.9579 35.7508 27.6527 35.3446 27.9306C34.9383 28.2085 34.2612 28.3475 32.7717 28.3475C31.1467 28.3475 30.605 28.2085 30.1988 27.7917C29.928 27.5137 29.2509 26.8189 30.0634 25.5683C30.605 24.4566 31.6884 23.9008 32.9071 23.9008Z" fill="black"/>
<path d="M42.3854 25.0122C41.7084 25.0122 41.8438 24.3174 40.8959 23.4837C40.2188 22.7889 39.0001 22.9279 39.0001 22.2331C39.0001 21.5383 40.7605 20.9824 42.25 22.2331C43.1979 23.2058 43.0625 25.0122 42.3854 25.0122Z" fill="black"/>
<path d="M23.0213 25.0122C23.6983 25.0122 23.5629 24.3174 24.5108 23.4837C25.1879 22.7889 26.4066 22.9279 26.4066 22.2331C26.4066 21.5383 24.6463 20.9824 23.1567 22.2331C22.2088 23.2058 22.3442 25.0122 23.0213 25.0122Z" fill="black"/>
</svg>
