<svg width="48" height="48" viewBox="0 0 48 48" fill="none" xmlns="http://www.w3.org/2000/svg">
<path d="M29.089 24.747C32.6 22.909 35 19.238 35 15C35 8.925 30.075 4 24 4C17.925 4 13 8.925 13 15C13 19.238 15.4 22.909 18.911 24.747C10.89 27.09 5 34.809 5 44H43C43 34.809 37.11 27.09 29.089 24.747ZM15 15C15 10.037 19.037 6 24 6C28.963 6 33 10.037 33 15C33 19.963 28.963 24 24 24C19.037 24 15 19.963 15 15ZM24 26C32.735 26 39.953 33.013 40.896 42H7.104C8.047 33.013 15.265 26 24 26Z" fill="#505050"/>
</svg>
