<svg width="48" height="48" viewBox="0 0 48 48" fill="none" xmlns="http://www.w3.org/2000/svg">
<path d="M42 6H18C15.8 6 14 7.8 14 10V14C7.4 14 2 19.4 2 26V38H6C6 41.314 8.686 44 12 44C15.314 44 18 41.314 18 38H26C26 41.314 28.686 44 32 44C35.314 44 38 41.314 38 38H42C44.2 38 46 36.2 46 34V10C46 7.8 44.2 6 42 6ZM44 34C44 35.103 43.103 36 42 36H37.651C36.826 33.671 34.611 32 32 32C29.389 32 27.173 33.671 26.349 36H18C17.876 36 17.756 35.985 17.638 35.963C17.298 35.022 16.731 34.192 16 33.536V10C16 8.897 16.897 8 18 8H42C43.103 8 44 8.897 44 10V34ZM36 38C36 40.206 34.206 42 32 42C29.794 42 28 40.206 28 38C28 35.794 29.794 34 32 34C34.206 34 36 35.794 36 38ZM16 38C16 40.206 14.206 42 12 42C9.794 42 8 40.206 8 38C8 35.794 9.794 34 12 34C14.206 34 16 35.794 16 38ZM14 16V25H4.051C4.554 19.954 8.824 16 14 16ZM4 36V27H14V32.349C13.374 32.127 12.702 32 12 32C9.389 32 7.173 33.671 6.349 36H4Z" fill="#505050"/>
</svg>
