<svg width="28" height="28" viewBox="0 0 28 28" fill="none" xmlns="http://www.w3.org/2000/svg">
<path d="M21.5464 17.3L24.6632 7.95001H7.79635L6.69635 4.65001H3.5498V5.75001H5.90325L9.5602 16.7214L7.10335 22.25H22.2498V21.15H8.79625L10.5073 17.3H21.5464ZM23.1364 9.05001L20.7533 16.2H10.5464L8.1632 9.05001H23.1364Z" fill="white" stroke="white" stroke-width="0.5"/>
<path d="M11.7997 25C12.4072 25 12.8997 24.5075 12.8997 23.9C12.8997 23.2925 12.4072 22.8 11.7997 22.8C11.1922 22.8 10.6997 23.2925 10.6997 23.9C10.6997 24.5075 11.1922 25 11.7997 25Z" fill="white"/>
<path d="M18.3998 25C19.0073 25 19.4998 24.5075 19.4998 23.9C19.4998 23.2925 19.0073 22.8 18.3998 22.8C17.7923 22.8 17.2998 23.2925 17.2998 23.9C17.2998 24.5075 17.7923 25 18.3998 25Z" fill="white"/>
</svg>
