<?xml version="1.0" encoding="utf-8"?>
<!-- Generator: Adobe Illustrator 16.0.0, SVG Export Plug-In . SVG Version: 6.00 Build 0)  -->
<!DOCTYPE svg PUBLIC "-//W3C//DTD SVG 1.1//EN" "http://www.w3.org/Graphics/SVG/1.1/DTD/svg11.dtd">
<svg version="1.1" id="Shape_1" xmlns="http://www.w3.org/2000/svg" xmlns:xlink="http://www.w3.org/1999/xlink" x="0px" y="0px"
	 width="25px" height="25px" viewBox="0 0 25 25" style="enable-background:new 0 0 25 25;" xml:space="preserve">
<path style="fill:#ff7400;" d="M23.878,25c-0.294,0-0.584-0.121-0.796-0.332l-5.619-5.618c-1.906,1.543-4.285,2.389-6.741,2.389
	C4.81,21.438,0,16.63,0,10.719C0,4.809,4.81,0,10.722,0c5.911,0,10.721,4.809,10.721,10.719c0,2.457-0.846,4.836-2.389,6.741
	l5.618,5.618c0.438,0.438,0.438,1.152,0,1.59C24.471,24.877,24.18,25,23.878,25z M10.716,2.255c-4.667,0-8.465,3.797-8.465,8.464
	c0,4.67,3.798,8.47,8.465,8.47c4.668,0,8.465-3.8,8.465-8.47C19.181,6.052,15.384,2.255,10.716,2.255z"/>
</svg>
