<svg width="120" height="20" viewBox="0 0 120 20" fill="none" xmlns="http://www.w3.org/2000/svg">
<path d="M9.19477 0.500289C9.54238 -0.166763 10.4576 -0.166763 10.8052 0.500289L13.3632 5.4088C13.4951 5.66194 13.7288 5.83961 13.9996 5.89268L19.2508 6.9218C19.9644 7.06165 20.2472 7.97259 19.7484 8.5247L16.0781 12.5874C15.8889 12.797 15.7996 13.0844 15.8351 13.3704L16.5225 18.9149C16.616 19.6684 15.8755 20.2314 15.2196 19.9056L10.3933 17.508C10.1444 17.3843 9.85558 17.3843 9.60668 17.508L4.78036 19.9056C4.12448 20.2314 3.38404 19.6684 3.47747 18.9149L4.16494 13.3704C4.20039 13.0844 4.11114 12.797 3.92185 12.5874L0.251556 8.5247C-0.247227 7.97259 0.0355948 7.06165 0.749217 6.9218L6.00041 5.89268C6.27123 5.83961 6.5049 5.66194 6.63682 5.4088L9.19477 0.500289Z" fill="black" fill-opacity="0.12"/>
<path d="M34.1948 0.500289C34.5424 -0.166763 35.4576 -0.166763 35.8052 0.500289L38.3632 5.4088C38.4951 5.66194 38.7288 5.83961 38.9996 5.89268L44.2508 6.9218C44.9644 7.06165 45.2472 7.97259 44.7484 8.5247L41.0781 12.5874C40.8889 12.797 40.7996 13.0844 40.8351 13.3704L41.5225 18.9149C41.616 19.6684 40.8755 20.2314 40.2196 19.9056L35.3933 17.508C35.1444 17.3843 34.8556 17.3843 34.6067 17.508L29.7804 19.9056C29.1245 20.2314 28.384 19.6684 28.4775 18.9149L29.1649 13.3704C29.2004 13.0844 29.1111 12.797 28.9219 12.5874L25.2516 8.5247C24.7528 7.97259 25.0356 7.06165 25.7492 6.9218L31.0004 5.89268C31.2712 5.83961 31.5049 5.66194 31.6368 5.4088L34.1948 0.500289Z" fill="black" fill-opacity="0.12"/>
<path d="M59.1948 0.500289C59.5424 -0.166763 60.4576 -0.166763 60.8052 0.500289L63.3632 5.4088C63.4951 5.66194 63.7288 5.83961 63.9996 5.89268L69.2508 6.9218C69.9644 7.06165 70.2472 7.97259 69.7484 8.5247L66.0781 12.5874C65.8889 12.797 65.7996 13.0844 65.8351 13.3704L66.5225 18.9149C66.616 19.6684 65.8755 20.2314 65.2196 19.9056L60.3933 17.508C60.1444 17.3843 59.8556 17.3843 59.6067 17.508L54.7804 19.9056C54.1245 20.2314 53.384 19.6684 53.4775 18.9149L54.1649 13.3704C54.2004 13.0844 54.1111 12.797 53.9219 12.5874L50.2516 8.5247C49.7528 7.97259 50.0356 7.06165 50.7492 6.9218L56.0004 5.89268C56.2712 5.83961 56.5049 5.66194 56.6368 5.4088L59.1948 0.500289Z" fill="black" fill-opacity="0.12"/>
<path d="M84.1948 0.500289C84.5424 -0.166763 85.4576 -0.166763 85.8052 0.500289L88.3632 5.4088C88.4951 5.66194 88.7288 5.83961 88.9996 5.89268L94.2508 6.9218C94.9644 7.06165 95.2472 7.97259 94.7484 8.5247L91.0781 12.5874C90.8889 12.797 90.7996 13.0844 90.8351 13.3704L91.5225 18.9149C91.616 19.6684 90.8755 20.2314 90.2196 19.9056L85.3933 17.508C85.1444 17.3843 84.8556 17.3843 84.6067 17.508L79.7804 19.9056C79.1245 20.2314 78.384 19.6684 78.4775 18.9149L79.1649 13.3704C79.2004 13.0844 79.1111 12.797 78.9219 12.5874L75.2516 8.5247C74.7528 7.97259 75.0356 7.06165 75.7492 6.9218L81.0004 5.89268C81.2712 5.83961 81.5049 5.66194 81.6368 5.4088L84.1948 0.500289Z" fill="black" fill-opacity="0.12"/>
<path d="M109.195 0.500289C109.542 -0.166763 110.458 -0.166763 110.805 0.500289L113.363 5.4088C113.495 5.66194 113.729 5.83961 114 5.89268L119.251 6.9218C119.964 7.06165 120.247 7.97259 119.748 8.5247L116.078 12.5874C115.889 12.797 115.8 13.0844 115.835 13.3704L116.523 18.9149C116.616 19.6684 115.876 20.2314 115.22 19.9056L110.393 17.508C110.144 17.3843 109.856 17.3843 109.607 17.508L104.78 19.9056C104.124 20.2314 103.384 19.6684 103.477 18.9149L104.165 13.3704C104.2 13.0844 104.111 12.797 103.922 12.5874L100.252 8.5247C99.7528 7.97259 100.036 7.06165 100.749 6.9218L106 5.89268C106.271 5.83961 106.505 5.66194 106.637 5.4088L109.195 0.500289Z" fill="black" fill-opacity="0.12"/>
</svg>
